<svg width="16" height="16" viewBox="0 0 16 16" fill="none" xmlns="http://www.w3.org/2000/svg">
<path d="M12.7461 15.875C12.0598 15.875 11.0958 15.6268 9.65231 14.8204C7.89696 13.836 6.53922 12.9272 4.79336 11.1859C3.11008 9.50367 2.29094 8.41453 1.1445 6.32836C-0.150659 3.97289 0.0701218 2.7382 0.316919 2.21051C0.610825 1.57981 1.04465 1.20258 1.6054 0.828165C1.92389 0.61949 2.26094 0.440609 2.61227 0.29379C2.64743 0.278673 2.68012 0.264259 2.7093 0.251251C2.88332 0.172853 3.147 0.054376 3.48098 0.180938C3.70387 0.26461 3.90286 0.435821 4.21434 0.743438C4.85313 1.37344 5.72606 2.77652 6.04809 3.46559C6.2643 3.93 6.40739 4.23656 6.40774 4.58039C6.40774 4.98293 6.20524 5.29336 5.9595 5.6284C5.91344 5.69133 5.86774 5.75145 5.82344 5.8098C5.5559 6.16137 5.49719 6.26297 5.53586 6.44438C5.61426 6.80895 6.19891 7.89422 7.15973 8.85293C8.12055 9.81164 9.17453 10.3594 9.54051 10.4374C9.72965 10.4779 9.83336 10.4167 10.1962 10.1396C10.2482 10.0999 10.3016 10.0588 10.3575 10.0177C10.7323 9.73887 11.0283 9.54164 11.4214 9.54164H11.4235C11.7656 9.54164 12.0584 9.69 12.5436 9.93469C13.1764 10.2539 14.6216 11.1156 15.2555 11.7551C15.5638 12.0659 15.7357 12.2641 15.8198 12.4867C15.9463 12.8217 15.8272 13.0843 15.7495 13.2601C15.7364 13.2893 15.722 13.3213 15.7069 13.3568C15.5589 13.7075 15.379 14.0438 15.1694 14.3616C14.7957 14.9205 14.417 15.3533 13.7849 15.6476C13.4603 15.8011 13.1051 15.8789 12.7461 15.875Z" fill="#8492A6"/>
</svg>
