<svg width="20" height="20" viewBox="0 0 20 20" fill="none" xmlns="http://www.w3.org/2000/svg">
<path fill-rule="evenodd" clip-rule="evenodd" d="M5.30935 3.59562C6.55769 2.35976 8.24336 1.66654 9.99998 1.66663C11.7566 1.66654 13.4423 2.35976 14.6906 3.59562C15.939 4.83148 16.6491 6.51009 16.6666 8.26663C16.6666 12.8333 10.8333 17.9166 10.5416 18.1333C10.3907 18.2624 10.1986 18.3333 9.99998 18.3333C9.80135 18.3333 9.60926 18.2624 9.45831 18.1333L9.45695 18.1321C9.18786 17.8989 3.33331 12.8253 3.33331 8.26663C3.35088 6.51009 4.06101 4.83148 5.30935 3.59562ZM8.37957 10.3417C8.85921 10.6622 9.42312 10.8333 9.99998 10.8333C10.7735 10.8333 11.5154 10.526 12.0624 9.97902C12.6094 9.43204 12.9166 8.69017 12.9166 7.91663C12.9166 7.33976 12.7456 6.77586 12.4251 6.29621C12.1046 5.81657 11.6491 5.44273 11.1161 5.22198C10.5832 5.00122 9.99674 4.94346 9.43097 5.056C8.86519 5.16854 8.34549 5.44633 7.93758 5.85423C7.52968 6.26213 7.2519 6.78183 7.13936 7.34761C7.02682 7.91339 7.08457 8.49984 7.30533 9.03279C7.52609 9.56574 7.89992 10.0213 8.37957 10.3417ZM11.25 7.91663C11.25 8.60698 10.6903 9.16663 9.99998 9.16663C9.30962 9.16663 8.74998 8.60698 8.74998 7.91663C8.74998 7.22627 9.30962 6.66663 9.99998 6.66663C10.6903 6.66663 11.25 7.22627 11.25 7.91663Z" fill="#8492A6"/>
</svg>
